<?xml version="1.0" encoding="utf-8"?>
<!-- Generator: Adobe Illustrator 18.1.1, SVG Export Plug-In . SVG Version: 6.00 Build 0)  -->
<svg version="1.1" id="Layer_1" xmlns="http://www.w3.org/2000/svg" xmlns:xlink="http://www.w3.org/1999/xlink" x="0px" y="0px"
	 width="160px" height="64px" viewBox="0 0 160 64" enable-background="new 0 0 160 64" xml:space="preserve">
<path fill="#ECF0F1" d="M16,0C7.2,0,0,7.1,0,16s7.2,16,16,16s16-7.2,16-16S24.8,0,16,0z M24,11.9c0,0.2,0,0.4,0,0.5
	c0,5.4-4.1,11.7-11.7,11.7c-2.3,0-4.5-0.7-6.3-1.8c0.3,0,0.6,0.1,1,0.1c1.9,0,3.7-0.7,5.1-1.8c-1.8,0-3.3-1.2-3.8-2.8
	c0.3,0,0.5,0.1,0.8,0.1c0.4,0,0.7-0.1,1.1-0.1c-1.9-0.4-3.3-2-3.3-4c0,0,0,0,0-0.1C7.4,13.9,8,14,8.7,14.1c-1.1-0.7-1.8-2-1.8-3.4
	c0-0.8,0.2-1.5,0.6-2.1c2,2.5,5,4.1,8.5,4.3c-0.1-0.3-0.1-0.6-0.1-0.9c0-2.3,1.8-4.1,4.1-4.1c1.2,0,2.2,0.5,3,1.3
	c0.9-0.2,1.8-0.5,2.6-1c-0.3,1-1,1.8-1.8,2.3c0.8-0.1,1.6-0.3,2.4-0.6C25.4,10.6,24.8,11.3,24,11.9z"/>
<path fill="#FFFFFF" d="M16,32C7.2,32,0,39.2,0,48s7.2,16,16,16s16-7.2,16-16S24.8,32,16,32z M24,43.9c0,0.2,0,0.4,0,0.5
	c0,5.4-4.1,11.7-11.7,11.7c-2.3,0-4.5-0.7-6.3-1.8c0.3,0,0.6,0.1,1,0.1c1.9,0,3.7-0.7,5.1-1.8c-1.8,0-3.3-1.2-3.8-2.8
	c0.3,0,0.5,0.1,0.8,0.1c0.4,0,0.7-0.1,1.1-0.1c-1.9-0.4-3.3-2-3.3-4c0,0,0,0,0-0.1c0.6,0.3,1.2,0.5,1.9,0.5c-1.1-0.7-1.8-2-1.8-3.4
	c0-0.8,0.2-1.5,0.6-2.1c2,2.5,5,4.1,8.5,4.3c-0.1-0.3-0.1-0.6-0.1-0.9c0-2.3,1.8-4.1,4.1-4.1c1.2,0,2.2,0.5,3,1.3
	c0.9-0.2,1.8-0.5,2.6-1c-0.3,1-1,1.8-1.8,2.3c0.8-0.1,1.6-0.3,2.4-0.6C25.4,42.6,24.8,43.3,24,43.9z"/>
<path fill="#ECF0F1" d="M48,0c-8.8,0-16,7.2-16,16s7.2,16,16,16V20h-4v-4h4v-3c0-2.8,2.2-5,5-5h5v4h-5c-0.6,0-1,0.4-1,1v3h5.5l-1,4
	H52v11.5c6.9-1.8,12-8,12-15.5C64,7.1,56.8,0,48,0z"/>
<path fill="#FFFFFF" d="M48,32c-8.8,0-16,7.2-16,16s7.2,16,16,16V52h-4v-4h4v-3c0-2.8,2.2-5,5-5h5v4h-5c-0.6,0-1,0.4-1,1v3h5.5l-1,4
	H52v11.5c6.9-1.8,12-8,12-15.5C64,39.2,56.8,32,48,32z"/>
<path fill="#ECF0F1" d="M80,0c-8.8,0-16,7.2-16,16c0,6.8,4.2,12.6,10.2,14.9c-0.1-1.3-0.3-3.2,0.1-4.6c0.3-1.2,1.9-8,1.9-8
	s-0.5-1-0.5-2.4c0-2.2,1.3-3.9,2.9-3.9c1.4,0,2,1,2,2.3c0,1.4-0.9,3.4-1.3,5.3c-0.4,1.6,0.8,2.9,2.4,2.9c2.8,0,5-3,5-7.3
	c0-3.8-2.8-6.5-6.7-6.5c-4.6,0-7.2,3.4-7.2,6.9c0,1.4,0.5,2.8,1.2,3.7c0.1,0.2,0.1,0.3,0.1,0.5c-0.1,0.5-0.4,1.6-0.4,1.8
	c-0.1,0.3-0.2,0.4-0.5,0.2c-2-0.9-3.2-3.9-3.2-6.2c0-5,3.7-9.7,10.6-9.7c5.6,0,9.9,4,9.9,9.2c0,5.5-3.5,10-8.3,10
	c-1.6,0-3.1-0.8-3.7-1.8c0,0-0.8,3.1-1,3.8c-0.4,1.4-1.3,3.1-2,4.2c1.5,0.5,3.1,0.7,4.7,0.7c8.8,0,16-7.2,16-16S88.8,0,80,0L80,0z"
	/>
<path fill="#FFFFFF" d="M80,32c-8.8,0-16,7.2-16,16c0,6.8,4.2,12.6,10.2,14.9c-0.1-1.3-0.3-3.2,0.1-4.6c0.3-1.2,1.9-8,1.9-8
	s-0.5-1-0.5-2.4c0-2.2,1.3-3.9,2.9-3.9c1.4,0,2,1,2,2.3c0,1.4-0.9,3.4-1.3,5.3c-0.4,1.6,0.8,2.9,2.4,2.9c2.8,0,5-3,5-7.3
	c0-3.8-2.8-6.5-6.7-6.5c-4.6,0-7.2,3.4-7.2,6.9c0,1.4,0.5,2.8,1.2,3.7c0.1,0.2,0.1,0.3,0.1,0.5c-0.1,0.5-0.4,1.6-0.4,1.8
	c-0.1,0.3-0.2,0.4-0.5,0.2c-2-0.9-3.2-3.9-3.2-6.2c0-5,3.7-9.7,10.6-9.7c5.6,0,9.9,4,9.9,9.2c0,5.5-3.5,10-8.3,10
	c-1.6,0-3.1-0.8-3.7-1.8c0,0-0.8,3.1-1,3.8c-0.4,1.4-1.3,3.1-2,4.2c1.5,0.5,3.1,0.7,4.7,0.7c8.8,0,16-7.2,16-16S88.8,32,80,32L80,32
	z"/>
<g>
	<polygon fill="#ECF0F1" points="118.6,12.4 118.6,9.8 118.6,9.4 118.2,9.4 115.7,9.5 115.7,12.4 	"/>
	<path fill="#ECF0F1" d="M111.9,19.1c1.7,0,3.1-1.4,3.1-3c0-0.7-0.2-1.3-0.6-1.8c-0.6-0.8-1.5-1.3-2.5-1.3c-1,0-1.9,0.5-2.5,1.3
		c-0.4,0.5-0.6,1.1-0.6,1.8C108.9,17.8,110.2,19.1,111.9,19.1z"/>
	<path fill="#ECF0F1" d="M112,0c-8.8,0-16,7.1-16,15.9s7.2,15.9,16,15.9c8.8,0,16-7.1,16-15.9S120.8,0,112,0z M120.6,14.3v7.1
		c0,1.8-1.5,3.3-3.4,3.3h-10.7c-1.9,0-3.4-1.5-3.4-3.3v-7.1v-3.5c0-1.8,1.5-3.3,3.4-3.3h10.7c1.9,0,3.4,1.5,3.4,3.3
		C120.6,10.8,120.6,14.3,120.6,14.3z"/>
	<path fill="#ECF0F1" d="M116.7,16.1c0,2.6-2.1,4.7-4.8,4.7c-2.6,0-4.8-2.1-4.8-4.7c0-0.6,0.1-1.2,0.3-1.8h-2.6v7.1
		c0,0.9,0.7,1.7,1.7,1.7h10.7c0.9,0,1.7-0.7,1.7-1.7v-7.1h-2.6C116.6,14.9,116.7,15.5,116.7,16.1z"/>
</g>
<g>
	<polygon fill="#FFFFFF" points="118.6,44.5 118.6,42 118.6,41.6 118.2,41.6 115.7,41.6 115.7,44.5 	"/>
	<path fill="#FFFFFF" d="M111.9,51.3c1.7,0,3.1-1.4,3.1-3c0-0.7-0.2-1.3-0.6-1.8c-0.6-0.8-1.5-1.3-2.5-1.3c-1,0-1.9,0.5-2.5,1.3
		c-0.4,0.5-0.6,1.1-0.6,1.8C108.9,49.9,110.2,51.3,111.9,51.3z"/>
	<path fill="#FFFFFF" d="M112,32.1c-8.8,0-16,7.1-16,15.9s7.2,15.9,16,15.9c8.8,0,16-7.1,16-15.9S120.8,32.1,112,32.1z M120.6,46.5
		v7.1c0,1.8-1.5,3.3-3.4,3.3h-10.7c-1.9,0-3.4-1.5-3.4-3.3v-7.1v-3.5c0-1.8,1.5-3.3,3.4-3.3h10.7c1.9,0,3.4,1.5,3.4,3.3
		C120.6,42.9,120.6,46.5,120.6,46.5z"/>
	<path fill="#FFFFFF" d="M116.7,48.2c0,2.6-2.1,4.7-4.8,4.7c-2.6,0-4.8-2.1-4.8-4.7c0-0.6,0.1-1.2,0.3-1.8h-2.6v7.1
		c0,0.9,0.7,1.7,1.7,1.7h10.7c0.9,0,1.7-0.7,1.7-1.7v-7.1h-2.6C116.6,47,116.7,47.6,116.7,48.2z"/>
</g>
<path fill="#ECF0F1" d="M144,0c-8.8,0-16,7.2-16,16s7.2,16,16,16s16-7.2,16-16S152.8,0,144,0z M153.4,13.7c-1.1,6-7,11-8.8,12.2
	c-1.8,1.2-3.4-0.5-4-1.7c-0.7-1.4-2.7-9-3.2-9.6c-0.5-0.6-2.1,0.6-2.1,0.6l-0.8-1c0,0,3.2-3.9,5.7-4.3c2.6-0.5,2.6,4,3.2,6.5
	c0.6,2.4,1,3.8,1.5,3.8c0.5,0,1.5-1.4,2.7-3.4c1.1-2.1,0-3.9-2.2-2.6C146.3,8.9,154.5,7.7,153.4,13.7L153.4,13.7z"/>
<path fill="#FFFFFF" d="M144,32c-8.8,0-16,7.2-16,16s7.2,16,16,16s16-7.2,16-16S152.8,32,144,32z M153.4,45.7c-1.1,6-7,11-8.8,12.2
	c-1.8,1.2-3.4-0.5-4-1.7c-0.7-1.4-2.7-9-3.2-9.6c-0.5-0.6-2.1,0.6-2.1,0.6l-0.8-1c0,0,3.2-3.9,5.7-4.3c2.6-0.5,2.6,4,3.2,6.5
	c0.6,2.4,1,3.8,1.5,3.8c0.5,0,1.5-1.4,2.7-3.4c1.1-2.1,0-3.9-2.2-2.6C146.3,41,154.5,39.7,153.4,45.7L153.4,45.7z"/>
</svg>
